# xmcd
#
# Track frame offsets: 
#        150
#        15772
#        32852
#        50816
#        68360
#        82979
#        97366
#        112016
#        132882
#        147391
#        161854
#        172077
#        193184
#        211795
#        232905
#        255712
#        306565
#
# Disc length: 4440 seconds
#
# Revision: 3
# Processed by: cddbd v1.5.1PL0 Copyright (c) Steve Scherf et al.
# Submitted via: ExactAudioCopy v0.95b1
#
DISCID=f4115611
DTITLE=Intocable - Intimamente
DYEAR=2004
DGENRE=Norteña
TTITLE0=Enséñame a olvidarte
TTITLE1=Déjame amarte
TTITLE2=Es tan bello
TTITLE3=Estás que te pelas
TTITLE4=Eso duele
TTITLE5=El amigo que se fue
TTITLE6=Llévame contigo
TTITLE7=Fuerte no soy
TTITLE8=Soñador eterno
TTITLE9=Y todo para qué?
TTITLE10=Eres mi droga
TTITLE11=Perdedor_Ayúdame
TTITLE12=Coqueta
TTITLE13=Sueña
TTITLE14=Nada es igual
TTITLE15=El poder de tus manos
TTITLE16=DATA
EXTD=
EXTT0=
EXTT1=
EXTT2=
EXTT3=
EXTT4=
EXTT5=
EXTT6=
EXTT7=
EXTT8=
EXTT9=
EXTT10=
EXTT11=
EXTT12=
EXTT13=
EXTT14=
EXTT15=
EXTT16=
PLAYORDER=
